<?xml version="1.0" encoding="UTF-8" standalone="no"?>
<!-- Created with Inkscape (http://www.inkscape.org/) -->

<svg
   xmlns:dc="http://purl.org/dc/elements/1.1/"
   xmlns:cc="http://creativecommons.org/ns#"
   xmlns:rdf="http://www.w3.org/1999/02/22-rdf-syntax-ns#"
   xmlns:svg="http://www.w3.org/2000/svg"
   xmlns="http://www.w3.org/2000/svg"
   xmlns:sodipodi="http://sodipodi.sourceforge.net/DTD/sodipodi-0.dtd"
   xmlns:inkscape="http://www.inkscape.org/namespaces/inkscape"
   version="1.1"
   width="1060"
   height="330"
   viewBox="0 0 1060 330"
   id="svg3183"
   xml:space="preserve"
   inkscape:version="0.48.4 r9939"
   sodipodi:docname="logo.svg"><sodipodi:namedview
     pagecolor="#ffffff"
     bordercolor="#666666"
     borderopacity="1"
     objecttolerance="10"
     gridtolerance="10"
     guidetolerance="10"
     inkscape:pageopacity="0"
     inkscape:pageshadow="2"
     inkscape:window-width="1364"
     inkscape:window-height="747"
     id="namedview3143"
     showgrid="false"
     inkscape:zoom="0.74736036"
     inkscape:cx="204.30884"
     inkscape:cy="250"
     inkscape:window-x="0"
     inkscape:window-y="19"
     inkscape:window-maximized="0"
     inkscape:current-layer="svg3183" /><metadata
     id="metadata3341"><rdf:RDF><cc:Work
         rdf:about=""><dc:format>image/svg+xml</dc:format><dc:type
           rdf:resource="http://purl.org/dc/dcmitype/StillImage" /><dc:title /></cc:Work></rdf:RDF></metadata><defs
     id="defs3339" /><g
     id="BG"
     transform="matrix(0.66882778,0,0,0.66882778,-2.4008078,-1.5722312)"><rect
       width="1600.299"
       height="500"
       x="0"
       y="0"
       id="rect3186"
       style="fill:#252525;stroke:#231f20;stroke-miterlimit:10" /></g><g
     id="Keyboard"
     transform="matrix(0.66882778,0,0,0.66882778,4.2894052,-5.586359)"><g
       id="Cord"><g
         id="Copy"
         style="display:none"><g
           id="g3191"
           style="display:inline"><path
             d="m 307.838,149.136 c 18.166,-9.103 36.449,-22.075 36.548,-44.618 0.045,-10.216 -4.982,-19.957 -12.05,-27.067 -8.528,-8.58 -21.194,-12.229 -32.875,-13.549 -11.557,-1.306 -23.434,1.607 -34.179,5.637 -10.809,4.054 -20.76,10.423 -31.708,13.994 -17.33,5.651 -40.152,4.397 -54.258,-8.199 -7.182,-6.413 -17.79,4.201 -10.552,10.665 14.089,12.581 33.5,16.827 51.981,15.221 8.997,-0.782 17.541,-3.032 25.759,-6.75 10.139,-4.587 19.782,-9.845 30.48,-13.107 16.985,-5.179 43.47,-3.643 50.924,15.797 7.516,19.6 -13.182,31.779 -27.667,39.037 -8.644,4.332 -1.02,17.257 7.597,12.939 l 0,0 z"
             id="path3193"
             style="fill:#ffffff"
             inkscape:connector-curvature="0" /></g></g><g
         id="g3195"
         style="display:none"><path
           d="m 299.461,65.166 c -9.698,-1.096 -19.619,0.784 -28.91,3.797 2.456,4.416 4.556,9.012 6.705,13.586 8.484,-2.537 19.271,-3.404 28.874,-1.229 3.826,-3.946 7.814,-7.759 11.375,-11.931 -5.816,-2.251 -12.058,-3.547 -18.044,-4.223 z"
           id="path3197"
           style="fill:#ffffff;display:inline"
           inkscape:connector-curvature="0" /><path
           d="m 180.642,77.697 c -0.445,-0.362 -0.897,-0.716 -1.326,-1.099 -7.182,-6.413 -17.79,4.201 -10.552,10.665 1.594,1.423 3.264,2.725 4.985,3.938 2.385,-4.456 4.647,-8.975 6.893,-13.504 z"
           id="path3199"
           style="fill:#ffffff;display:inline"
           inkscape:connector-curvature="0" /><path
           d="m 222.097,87.393 c -11.07,1.495 -22.986,0.321 -32.956,-4.375 -2.199,4.431 -4.414,8.852 -6.747,13.211 11.781,5.583 25.294,7.389 38.352,6.254 0.536,-0.046 1.065,-0.116 1.598,-0.172 0.192,-4.968 -0.029,-9.942 -0.247,-14.918 z"
           id="path3201"
           style="fill:#ffffff;display:inline"
           inkscape:connector-curvature="0" /><path
           d="m 261.054,72.515 c -9.218,3.973 -17.973,9.182 -27.479,12.282 -0.518,0.169 -1.041,0.331 -1.567,0.487 0.213,5.101 0.491,10.198 0.388,15.291 4.818,-1.161 9.517,-2.763 14.109,-4.841 7.176,-3.247 14.111,-6.817 21.34,-9.791 -2.127,-4.547 -4.265,-9.086 -6.791,-13.428 z"
           id="path3203"
           style="fill:#ffffff;display:inline"
           inkscape:connector-curvature="0" /><path
           d="m 332.335,78.715 c -1.766,-1.776 -3.716,-3.33 -5.791,-4.707 -3.205,3.91 -6.731,7.519 -10.258,11.137 5.142,2.919 9.303,7.231 11.622,13.278 0.886,2.311 1.367,4.514 1.525,6.623 4.979,0.033 9.957,0.075 14.935,0.11 -0.157,-9.987 -5.11,-19.476 -12.033,-26.441 z"
           id="path3205"
           style="fill:#ffffff;display:inline"
           inkscape:connector-curvature="0" /><path
           d="m 327.578,115.034 c -4.769,10.274 -17.484,17.49 -27.335,22.427 -8.645,4.332 -1.021,17.257 7.596,12.939 15.486,-7.76 31.048,-18.337 35.367,-35.252 -5.21,-0.039 -10.419,-0.084 -15.628,-0.114 z"
           id="path3207"
           style="fill:#ffffff;display:inline"
           inkscape:connector-curvature="0" /></g><g
         id="g3209"><path
           d="m 182.613,84.603 c 0.796,-1.226 1.612,-2.451 2.419,-3.682 -2.023,-1.235 -3.941,-2.635 -5.717,-4.221 -7.182,-6.413 -17.79,4.201 -10.552,10.665 2.693,2.405 5.584,4.5 8.623,6.314 1.546,-3.125 3.322,-6.143 5.227,-9.076 z"
           id="path3211"
           style="fill:#ffffff"
           inkscape:connector-curvature="0" /><path
           d="m 231.895,87.405 c -0.554,-0.512 -1.02,-1.044 -1.418,-1.587 -8.284,2.231 -17.562,2.928 -26.435,1.661 -2.789,4.478 -5.729,8.868 -8.067,13.523 8.072,1.841 16.513,2.302 24.771,1.585 7.479,-0.65 14.641,-2.33 21.566,-5.009 -3.41,-3.455 -6.852,-6.876 -10.417,-10.173 z"
           id="path3213"
           style="fill:#ffffff"
           inkscape:connector-curvature="0" /><path
           d="m 265.282,70.906 c -5.039,1.89 -9.891,4.282 -14.744,6.66 3.767,3.661 7.45,7.404 11.116,11.167 4.977,-2.275 10.024,-4.385 15.331,-6.003 2.916,-0.889 6.115,-1.575 9.447,-2.012 0.605,-5.176 1.418,-10.332 1.961,-15.512 -7.924,0.724 -15.781,2.951 -23.111,5.7 z"
           id="path3215"
           style="fill:#ffffff"
           inkscape:connector-curvature="0" /><path
           d="m 332.335,78.818 c -6.42,-6.459 -15.187,-10.123 -24.111,-12.103 -0.562,4.927 -1.322,9.836 -1.877,14.765 8.866,2.058 16.694,6.721 20.711,15.088 5.226,-0.361 10.453,-0.687 15.683,-0.972 -2.025,-6.318 -5.771,-12.116 -10.406,-16.778 z"
           id="path3217"
           style="fill:#ffffff"
           inkscape:connector-curvature="0" /><path
           d="m 326.843,116.583 c -5.24,9.51 -17.219,16.279 -26.601,20.98 -8.645,4.332 -1.021,17.257 7.596,12.939 15.387,-7.71 30.855,-18.2 35.288,-34.927 -5.43,0.294 -10.857,0.632 -16.283,1.008 z"
           id="path3219"
           style="fill:#ffffff"
           inkscape:connector-curvature="0" /></g></g><rect
       width="213"
       height="245"
       x="148.965"
       y="127.691"
       id="BG_1_"
       style="fill:#589cbd" /><g
       id="Keys"
       style="display:none"><rect
         width="35"
         height="35"
         x="187.799"
         y="156.192"
         id="rect3223"
         style="fill:#ffffff;display:inline" /><rect
         width="35"
         height="35"
         x="237.799"
         y="156.192"
         id="rect3225"
         style="fill:#ffffff;display:inline" /><rect
         width="35"
         height="35"
         x="287.79901"
         y="156.192"
         id="rect3227"
         style="fill:#ffffff;display:inline" /><rect
         width="35"
         height="35"
         x="187.799"
         y="206.192"
         id="rect3229"
         style="fill:#ffffff;display:inline" /><rect
         width="35"
         height="35"
         x="237.799"
         y="206.192"
         id="rect3231"
         style="fill:#ffffff;display:inline" /><rect
         width="35"
         height="35"
         x="287.79901"
         y="206.192"
         id="rect3233"
         style="fill:#ffffff;display:inline" /><rect
         width="35"
         height="35"
         x="187.799"
         y="256.19199"
         id="rect3235"
         style="fill:#ffffff;display:inline" /><rect
         width="35"
         height="35"
         x="237.799"
         y="256.19199"
         id="rect3237"
         style="fill:#ffffff;display:inline" /><rect
         width="35"
         height="35"
         x="287.79901"
         y="256.19199"
         id="rect3239"
         style="fill:#ffffff;display:inline" /><rect
         width="85"
         height="35"
         x="187.799"
         y="306.19199"
         id="rect3241"
         style="fill:#ffffff;display:inline" /><rect
         width="35"
         height="35"
         x="287.79901"
         y="306.19199"
         id="rect3243"
         style="fill:#ffffff;display:inline" /></g><g
       id="keys2"><g
         id="g3246"><rect
           width="28.833"
           height="28.834"
           x="191.048"
           y="160.774"
           id="rect3248"
           style="fill:#ffffff" /><rect
           width="28.833"
           height="28.834"
           x="241.048"
           y="160.774"
           id="rect3250"
           style="fill:#ffffff" /><rect
           width="28.833"
           height="28.834"
           x="291.048"
           y="160.774"
           id="rect3252"
           style="fill:#ffffff" /><rect
           width="28.833"
           height="28.834"
           x="191.048"
           y="210.774"
           id="rect3254"
           style="fill:#ffffff" /><rect
           width="28.833"
           height="28.834"
           x="241.048"
           y="210.774"
           id="rect3256"
           style="fill:#ffffff" /><rect
           width="28.833"
           height="28.834"
           x="291.048"
           y="210.774"
           id="rect3258"
           style="fill:#ffffff" /><rect
           width="28.833"
           height="28.834"
           x="191.048"
           y="260.77399"
           id="rect3260"
           style="fill:#ffffff" /><rect
           width="28.833"
           height="28.834"
           x="241.048"
           y="260.77399"
           id="rect3262"
           style="fill:#ffffff" /><rect
           width="28.833"
           height="28.834"
           x="291.048"
           y="260.77399"
           id="rect3264"
           style="fill:#ffffff" /><rect
           width="78.833"
           height="28.834"
           x="191.048"
           y="310.77399"
           id="rect3266"
           style="fill:#ffffff" /><rect
           width="28.833"
           height="28.834"
           x="291.048"
           y="310.77399"
           id="rect3268"
           style="fill:#ffffff" /></g></g></g><g
     id="g3271"
     transform="matrix(0.66882778,0,0,0.66882778,4.2894052,-5.586359)"><path
       d="m 425.238,282.341 h 0.693 c 4.159,-5.88 9.704,-13.145 14.556,-19.025 l 49.558,-57.766 h 36.389 l -64.46,68.834 73.817,98.582 h -37.428 l -57.528,-80.249 -15.595,17.295 v 62.954 h -30.15 v -245.59 h 30.15 v 154.965 z"
       id="path3273"
       style="fill:#ffffff"
       inkscape:connector-curvature="0" /><path
       d="M 563.515,372.967 V 205.551 h 30.497 v 167.417 h -30.497 z"
       id="path3275"
       style="fill:#ffffff"
       inkscape:connector-curvature="0" /><path
       d="M 644.609,372.967 V 205.551 h 30.497 v 167.417 h -30.497 z"
       id="path3277"
       style="fill:#ffffff"
       inkscape:connector-curvature="0" /><path
       d="m 725.703,127.377 h 30.15 v 105.154 h 0.693 c 10.743,-18.679 30.15,-30.439 57.182,-30.439 41.934,0 71.044,34.59 71.044,85.092 0,59.841 -38.121,89.588 -75.549,89.588 -24.26,0 -43.666,-9.339 -56.489,-31.131 h -0.693 l -1.732,27.326 h -25.992 c 0.693,-11.415 1.387,-28.364 1.387,-43.238 V 127.377 z m 30.15,178.485 c 0,3.805 0.347,7.61 1.386,11.069 5.545,21.1 23.566,35.628 45.746,35.628 32.229,0 50.944,-25.942 50.944,-64.338 0,-33.552 -17.328,-62.262 -50.251,-62.262 -20.447,0 -39.854,14.528 -46.093,37.357 -1.039,3.805 -1.732,7.956 -1.732,12.798 v 29.748 z"
       id="path3279"
       style="fill:#ffffff"
       inkscape:connector-curvature="0" /><path
       d="m 1074.684,287.875 c 0,61.917 -43.319,88.896 -83.521,88.896 -45.052,0 -80.401,-33.207 -80.401,-86.129 0,-55.69 37.082,-88.551 83.174,-88.551 48.172,0.001 80.748,34.937 80.748,85.784 z m -132.731,1.73 c 0,36.666 20.794,64.338 50.598,64.338 29.11,0 50.943,-27.326 50.943,-65.03 0,-28.364 -14.208,-63.992 -50.251,-63.992 -35.696,0 -51.29,33.207 -51.29,64.684 z"
       id="path3281"
       style="fill:#ffffff"
       inkscape:connector-curvature="0" /><path
       d="m 1113.155,127.377 h 30.497 v 104.808 h 0.693 c 4.852,-8.647 12.476,-16.604 21.833,-21.792 9.01,-5.188 19.754,-8.302 31.189,-8.302 22.526,0 58.568,13.836 58.568,71.256 v 99.62 h -30.497 v -96.161 c 0,-26.98 -10.05,-49.464 -38.814,-49.464 -19.753,0 -35.002,13.836 -40.894,30.093 -1.732,4.497 -2.079,8.994 -2.079,14.528 v 101.003 h -30.497 V 127.377 z"
       id="path3283"
       style="fill:#ffffff"
       inkscape:connector-curvature="0" /><path
       d="m 1450.009,127.377 v 202.352 c 0,14.874 0.692,31.823 1.386,43.238 h -27.031 l -1.387,-29.056 h -1.039 c -9.011,18.679 -29.111,32.86 -56.489,32.86 -40.547,0 -72.084,-34.244 -72.084,-85.091 -0.347,-55.69 34.656,-89.589 75.203,-89.589 25.992,0 42.974,12.107 50.598,25.251 h 0.693 v -99.965 h 30.15 z m -30.15,146.316 c 0,-3.805 -0.347,-8.993 -1.387,-12.798 -4.505,-19.024 -21.14,-34.936 -44.013,-34.936 -31.537,0 -50.251,27.672 -50.251,64.338 0,33.898 16.981,61.917 49.558,61.917 20.447,0 39.161,-13.836 44.706,-36.32 1.04,-4.151 1.387,-8.302 1.387,-13.144 v -29.057 z"
       id="path3285"
       style="fill:#ffffff"
       inkscape:connector-curvature="0" /></g><path
     d="m 403.89862,100.4282 c 0,6.94043 -4.86706,12.49304 -12.97927,12.49304 -7.4173,0 -12.28503,-5.55261 -12.28503,-12.49304 0,-6.940422 5.09914,-12.723785 12.74919,-12.723785 7.41663,0 12.51511,5.552613 12.51511,12.723785 z"
     id="path3287"
     style="fill:#e8ae5a"
     inkscape:connector-curvature="0" /><path
     d="m 458.13654,100.4282 c 0,6.94043 -4.86706,12.49304 -12.97927,12.49304 -7.4173,0 -12.28503,-5.55261 -12.28503,-12.49304 0,-6.940422 5.09914,-12.723785 12.74919,-12.723785 7.41663,0 12.51511,5.552613 12.51511,12.723785 z"
     id="path3289"
     style="fill:#e8ae5a"
     inkscape:connector-curvature="0" /></svg>